<svg width="30" height="38" viewBox="0 0 30 38" fill="none" xmlns="http://www.w3.org/2000/svg">
<g filter="url(#filter0_d_34_483)">
<g clip-path="url(#clip0_34_483)">
<path d="M16.0125 0.516875C15.7775 0.1925 15.4006 0 15 0C14.5994 0 14.2225 0.1925 13.9875 0.516875C13.0038 1.87562 4.375 13.9487 4.375 19.375C4.375 25.2337 9.14125 30 15 30C20.8588 30 25.625 25.2337 25.625 19.375C25.625 13.9487 16.9963 1.87562 16.0125 0.516875ZM15 27.5C10.52 27.5 6.875 23.855 6.875 19.375C6.875 15.9087 12.0519 7.69 15 3.41875C17.9481 7.69 23.125 15.9087 23.125 19.375C23.125 23.855 19.48 27.5 15 27.5Z" fill="white"/>
<path d="M15 23.125C12.9319 23.125 11.25 21.4431 11.25 19.375C11.25 18.685 10.69 18.125 10 18.125C9.31 18.125 8.75 18.685 8.75 19.375C8.75 22.8213 11.5538 25.625 15 25.625C15.69 25.625 16.25 25.065 16.25 24.375C16.25 23.685 15.69 23.125 15 23.125Z" fill="white"/>
</g>
</g>
<defs>
<filter id="filter0_d_34_483" x="-4" y="0" width="38" height="38" filterUnits="userSpaceOnUse" color-interpolation-filters="sRGB">
<feFlood flood-opacity="0" result="BackgroundImageFix"/>
<feColorMatrix in="SourceAlpha" type="matrix" values="0 0 0 0 0 0 0 0 0 0 0 0 0 0 0 0 0 0 127 0" result="hardAlpha"/>
<feOffset dy="4"/>
<feGaussianBlur stdDeviation="2"/>
<feComposite in2="hardAlpha" operator="out"/>
<feColorMatrix type="matrix" values="0 0 0 0 0 0 0 0 0 0 0 0 0 0 0 0 0 0 0.25 0"/>
<feBlend mode="normal" in2="BackgroundImageFix" result="effect1_dropShadow_34_483"/>
<feBlend mode="normal" in="SourceGraphic" in2="effect1_dropShadow_34_483" result="shape"/>
</filter>
<clipPath id="clip0_34_483">
<rect width="30" height="30" fill="white"/>
</clipPath>
</defs>
</svg>
