<svg width="30" height="30" viewBox="0 0 30 30" fill="none" xmlns="http://www.w3.org/2000/svg">
<g clip-path="url(#clip0_34_608)">
<g filter="url(#filter0_d_34_608)">
<path d="M2.12797 16.4506H23.5595C26.6667 16.4506 29.1944 13.9228 29.1944 10.8157C29.1944 7.71322 26.6739 5.18827 23.573 5.18091C23.2675 5.17631 21.2839 5.20376 19.8027 6.64792C18.8104 7.61542 18.3073 8.94484 18.3073 10.5991C18.3073 11.3295 18.8994 11.9216 19.6299 11.9216C20.3603 11.9216 20.9523 11.3294 20.9523 10.5991C20.9523 9.69307 21.1826 9.00513 21.6364 8.55449C22.3437 7.85204 23.444 7.82675 23.532 7.82586C23.5443 7.82626 23.5428 7.82606 23.5594 7.82606C25.208 7.82606 26.5493 9.16724 26.5493 10.8157C26.5493 12.4643 25.2081 13.8055 23.5594 13.8055H2.12797C1.39753 13.8055 0.80542 14.3976 0.80542 15.128C0.80542 15.8585 1.39753 16.4506 2.12797 16.4506Z" fill="white"/>
<path d="M2.12797 11.27H12.3433C15.4503 11.27 17.9781 8.74214 17.9781 5.63508C17.9781 2.53239 15.4578 0.0073367 12.3567 0.000277874C12.0476 -0.00403585 10.0671 0.0235132 8.58635 1.46729C7.5941 2.43489 7.09096 3.7643 7.09096 5.41851C7.09096 6.14895 7.68302 6.74116 8.41351 6.74116C9.144 6.74116 9.73596 6.149 9.73596 5.41851C9.73596 4.51253 9.9662 3.82459 10.42 3.37395C11.1272 2.6716 12.2275 2.64611 12.3158 2.64523C12.3282 2.64562 12.3265 2.64542 12.3433 2.64542C13.9917 2.64542 15.333 3.9866 15.333 5.63508C15.333 7.28366 13.9918 8.62484 12.3433 8.62484H2.12797C1.39753 8.62484 0.80542 9.21699 0.80542 9.94748C0.80542 10.678 1.39753 11.27 2.12797 11.27Z" fill="white"/>
<path d="M23.5595 18.73H2.12797C1.39753 18.73 0.80542 19.3222 0.80542 20.0526C0.80542 20.7829 1.39748 21.3751 2.12797 21.3751H23.5595C25.2081 21.3751 26.5493 22.7163 26.5493 24.3648C26.5493 26.0134 25.2082 27.3546 23.5595 27.3546C23.5429 27.3546 23.5444 27.3543 23.532 27.3548C23.4439 27.3539 22.3437 27.3285 21.6364 26.6261C21.1826 26.1755 20.9524 25.4875 20.9524 24.5815C20.9524 23.851 20.3604 23.2588 19.6299 23.2588C18.8995 23.2588 18.3074 23.851 18.3074 24.5815C18.3074 26.2358 18.8104 27.5652 19.8028 28.5327C21.2243 29.9188 23.107 30.0001 23.528 30C23.5457 30 23.5607 29.9999 23.573 29.9997C26.674 29.9924 29.1944 27.4674 29.1944 24.3649C29.1944 21.2578 26.6667 18.73 23.5595 18.73Z" fill="white"/>
</g>
</g>
<defs>
<filter id="filter0_d_34_608" x="-3.19458" y="0" width="36.3889" height="38" filterUnits="userSpaceOnUse" color-interpolation-filters="sRGB">
<feFlood flood-opacity="0" result="BackgroundImageFix"/>
<feColorMatrix in="SourceAlpha" type="matrix" values="0 0 0 0 0 0 0 0 0 0 0 0 0 0 0 0 0 0 127 0" result="hardAlpha"/>
<feOffset dy="4"/>
<feGaussianBlur stdDeviation="2"/>
<feComposite in2="hardAlpha" operator="out"/>
<feColorMatrix type="matrix" values="0 0 0 0 0 0 0 0 0 0 0 0 0 0 0 0 0 0 0.25 0"/>
<feBlend mode="normal" in2="BackgroundImageFix" result="effect1_dropShadow_34_608"/>
<feBlend mode="normal" in="SourceGraphic" in2="effect1_dropShadow_34_608" result="shape"/>
</filter>
<clipPath id="clip0_34_608">
<rect width="30" height="30" fill="white"/>
</clipPath>
</defs>
</svg>
